<mxfile host="Electron" agent="Mozilla/5.0 (Windows NT 10.0; Win64; x64) AppleWebKit/537.36 (KHTML, like Gecko) draw.io/26.0.9 Chrome/128.0.6613.186 Electron/32.2.5 Safari/537.36" version="26.0.9">
  <diagram name="Page-1" id="e7e014a7-5840-1c2e-5031-d8a46d1fe8dd">
    <mxGraphModel dx="772" dy="573" grid="1" gridSize="10" guides="1" tooltips="1" connect="1" arrows="1" fold="1" page="1" pageScale="1" pageWidth="1169" pageHeight="826" background="none" math="0" shadow="0">
      <root>
        <mxCell id="0" />
        <mxCell id="1" parent="0" />
        <mxCell id="DUinE7ujqetBSsv4jxN9-42" value="" style="ellipse;html=1;shape=startState;fillColor=#000000;strokeColor=#000000;" vertex="1" parent="1">
          <mxGeometry x="570" y="30" width="30" height="30" as="geometry" />
        </mxCell>
        <mxCell id="DUinE7ujqetBSsv4jxN9-43" value="" style="edgeStyle=orthogonalEdgeStyle;html=1;verticalAlign=bottom;endArrow=open;endSize=8;strokeColor=#000000;rounded=0;" edge="1" source="DUinE7ujqetBSsv4jxN9-42" parent="1">
          <mxGeometry relative="1" as="geometry">
            <mxPoint x="585" y="90" as="targetPoint" />
          </mxGeometry>
        </mxCell>
        <mxCell id="DUinE7ujqetBSsv4jxN9-46" style="edgeStyle=orthogonalEdgeStyle;rounded=0;orthogonalLoop=1;jettySize=auto;html=1;exitX=0.5;exitY=1;exitDx=0;exitDy=0;entryX=0.5;entryY=0;entryDx=0;entryDy=0;" edge="1" parent="1" source="DUinE7ujqetBSsv4jxN9-44" target="DUinE7ujqetBSsv4jxN9-45">
          <mxGeometry relative="1" as="geometry" />
        </mxCell>
        <mxCell id="DUinE7ujqetBSsv4jxN9-44" value="User selects&amp;nbsp;&lt;br&gt;&quot;CREATE DECK&quot;" style="rounded=1;whiteSpace=wrap;html=1;" vertex="1" parent="1">
          <mxGeometry x="532.5" y="90" width="105" height="40" as="geometry" />
        </mxCell>
        <mxCell id="DUinE7ujqetBSsv4jxN9-51" style="edgeStyle=orthogonalEdgeStyle;rounded=0;orthogonalLoop=1;jettySize=auto;html=1;exitX=0.5;exitY=1;exitDx=0;exitDy=0;entryX=0.5;entryY=0;entryDx=0;entryDy=0;" edge="1" parent="1" source="DUinE7ujqetBSsv4jxN9-45" target="DUinE7ujqetBSsv4jxN9-49">
          <mxGeometry relative="1" as="geometry" />
        </mxCell>
        <mxCell id="DUinE7ujqetBSsv4jxN9-45" value="User prompted for AI deck, or manual deck creation" style="whiteSpace=wrap;html=1;" vertex="1" parent="1">
          <mxGeometry x="525" y="150" width="120" height="50" as="geometry" />
        </mxCell>
        <mxCell id="DUinE7ujqetBSsv4jxN9-53" style="edgeStyle=orthogonalEdgeStyle;rounded=0;orthogonalLoop=1;jettySize=auto;html=1;exitX=1;exitY=0.5;exitDx=0;exitDy=0;entryX=0;entryY=0.5;entryDx=0;entryDy=0;" edge="1" parent="1" source="DUinE7ujqetBSsv4jxN9-49" target="DUinE7ujqetBSsv4jxN9-52">
          <mxGeometry relative="1" as="geometry">
            <Array as="points">
              <mxPoint x="660" y="230" />
              <mxPoint x="660" y="90" />
            </Array>
          </mxGeometry>
        </mxCell>
        <mxCell id="DUinE7ujqetBSsv4jxN9-54" value="AI" style="edgeLabel;html=1;align=center;verticalAlign=middle;resizable=0;points=[];" vertex="1" connectable="0" parent="DUinE7ujqetBSsv4jxN9-53">
          <mxGeometry x="-0.7994" y="1" relative="1" as="geometry">
            <mxPoint as="offset" />
          </mxGeometry>
        </mxCell>
        <mxCell id="DUinE7ujqetBSsv4jxN9-86" style="edgeStyle=orthogonalEdgeStyle;rounded=0;orthogonalLoop=1;jettySize=auto;html=1;exitX=0;exitY=0.5;exitDx=0;exitDy=0;entryX=1;entryY=0.5;entryDx=0;entryDy=0;" edge="1" parent="1" source="DUinE7ujqetBSsv4jxN9-49" target="DUinE7ujqetBSsv4jxN9-85">
          <mxGeometry relative="1" as="geometry">
            <Array as="points">
              <mxPoint x="500" y="230" />
              <mxPoint x="500" y="90" />
            </Array>
          </mxGeometry>
        </mxCell>
        <mxCell id="DUinE7ujqetBSsv4jxN9-87" value="Manual" style="edgeLabel;html=1;align=center;verticalAlign=middle;resizable=0;points=[];" vertex="1" connectable="0" parent="DUinE7ujqetBSsv4jxN9-86">
          <mxGeometry x="-0.8207" y="-1" relative="1" as="geometry">
            <mxPoint x="-9" y="1" as="offset" />
          </mxGeometry>
        </mxCell>
        <mxCell id="DUinE7ujqetBSsv4jxN9-49" value="" style="rhombus;whiteSpace=wrap;html=1;" vertex="1" parent="1">
          <mxGeometry x="562" y="220" width="45" height="20" as="geometry" />
        </mxCell>
        <mxCell id="DUinE7ujqetBSsv4jxN9-55" style="edgeStyle=orthogonalEdgeStyle;rounded=0;orthogonalLoop=1;jettySize=auto;html=1;exitX=0.5;exitY=1;exitDx=0;exitDy=0;" edge="1" parent="1" source="DUinE7ujqetBSsv4jxN9-52">
          <mxGeometry relative="1" as="geometry">
            <mxPoint x="740.1538461538462" y="130" as="targetPoint" />
          </mxGeometry>
        </mxCell>
        <mxCell id="DUinE7ujqetBSsv4jxN9-52" value="User prompted for text or .txt file upload" style="whiteSpace=wrap;html=1;" vertex="1" parent="1">
          <mxGeometry x="680" y="70" width="120" height="40" as="geometry" />
        </mxCell>
        <mxCell id="DUinE7ujqetBSsv4jxN9-61" style="edgeStyle=orthogonalEdgeStyle;rounded=0;orthogonalLoop=1;jettySize=auto;html=1;exitX=0.5;exitY=1;exitDx=0;exitDy=0;entryX=0.5;entryY=0;entryDx=0;entryDy=0;" edge="1" parent="1" source="DUinE7ujqetBSsv4jxN9-56" target="DUinE7ujqetBSsv4jxN9-59">
          <mxGeometry relative="1" as="geometry" />
        </mxCell>
        <mxCell id="DUinE7ujqetBSsv4jxN9-56" value="User provides text" style="rounded=1;whiteSpace=wrap;html=1;" vertex="1" parent="1">
          <mxGeometry x="685" y="130" width="110" height="20" as="geometry" />
        </mxCell>
        <mxCell id="DUinE7ujqetBSsv4jxN9-63" value="" style="edgeStyle=orthogonalEdgeStyle;rounded=0;orthogonalLoop=1;jettySize=auto;html=1;" edge="1" parent="1" source="DUinE7ujqetBSsv4jxN9-59" target="DUinE7ujqetBSsv4jxN9-62">
          <mxGeometry relative="1" as="geometry" />
        </mxCell>
        <mxCell id="DUinE7ujqetBSsv4jxN9-64" value="False" style="edgeLabel;html=1;align=center;verticalAlign=middle;resizable=0;points=[];" vertex="1" connectable="0" parent="DUinE7ujqetBSsv4jxN9-63">
          <mxGeometry x="-0.495" y="1" relative="1" as="geometry">
            <mxPoint x="7" y="1" as="offset" />
          </mxGeometry>
        </mxCell>
        <mxCell id="DUinE7ujqetBSsv4jxN9-66" style="edgeStyle=orthogonalEdgeStyle;rounded=0;orthogonalLoop=1;jettySize=auto;html=1;exitX=0.5;exitY=1;exitDx=0;exitDy=0;" edge="1" parent="1" source="DUinE7ujqetBSsv4jxN9-59" target="DUinE7ujqetBSsv4jxN9-67">
          <mxGeometry relative="1" as="geometry">
            <mxPoint x="740.1538461538462" y="210" as="targetPoint" />
          </mxGeometry>
        </mxCell>
        <mxCell id="DUinE7ujqetBSsv4jxN9-59" value="" style="rhombus;whiteSpace=wrap;html=1;" vertex="1" parent="1">
          <mxGeometry x="717.5" y="165" width="45" height="20" as="geometry" />
        </mxCell>
        <mxCell id="DUinE7ujqetBSsv4jxN9-60" value="Text at&lt;br&gt;&amp;nbsp;least&amp;nbsp;&lt;span style=&quot;background-color: transparent; color: light-dark(rgb(0, 0, 0), rgb(255, 255, 255));&quot;&gt;150&lt;/span&gt;&lt;div&gt;&lt;span style=&quot;background-color: transparent; color: light-dark(rgb(0, 0, 0), rgb(255, 255, 255));&quot;&gt;words?&lt;/span&gt;&lt;/div&gt;" style="text;html=1;align=center;verticalAlign=middle;resizable=0;points=[];autosize=1;strokeColor=none;fillColor=none;" vertex="1" parent="1">
          <mxGeometry x="645" y="145" width="80" height="60" as="geometry" />
        </mxCell>
        <mxCell id="DUinE7ujqetBSsv4jxN9-65" style="edgeStyle=orthogonalEdgeStyle;rounded=0;orthogonalLoop=1;jettySize=auto;html=1;exitX=0.5;exitY=0;exitDx=0;exitDy=0;entryX=1;entryY=0.5;entryDx=0;entryDy=0;" edge="1" parent="1" source="DUinE7ujqetBSsv4jxN9-62" target="DUinE7ujqetBSsv4jxN9-52">
          <mxGeometry relative="1" as="geometry" />
        </mxCell>
        <mxCell id="DUinE7ujqetBSsv4jxN9-62" value="Inform user that text is too short to create deck with AI" style="whiteSpace=wrap;html=1;" vertex="1" parent="1">
          <mxGeometry x="810" y="152.5" width="120" height="45" as="geometry" />
        </mxCell>
        <mxCell id="DUinE7ujqetBSsv4jxN9-69" value="" style="edgeStyle=orthogonalEdgeStyle;rounded=0;orthogonalLoop=1;jettySize=auto;html=1;" edge="1" parent="1" source="DUinE7ujqetBSsv4jxN9-67" target="DUinE7ujqetBSsv4jxN9-68">
          <mxGeometry relative="1" as="geometry" />
        </mxCell>
        <mxCell id="DUinE7ujqetBSsv4jxN9-67" value="Make submit button selectable" style="whiteSpace=wrap;html=1;" vertex="1" parent="1">
          <mxGeometry x="680" y="205" width="120" height="35" as="geometry" />
        </mxCell>
        <mxCell id="DUinE7ujqetBSsv4jxN9-71" style="edgeStyle=orthogonalEdgeStyle;rounded=0;orthogonalLoop=1;jettySize=auto;html=1;exitX=0.5;exitY=1;exitDx=0;exitDy=0;" edge="1" parent="1" source="DUinE7ujqetBSsv4jxN9-68" target="DUinE7ujqetBSsv4jxN9-72">
          <mxGeometry relative="1" as="geometry">
            <mxPoint x="740.1538461538462" y="310" as="targetPoint" />
          </mxGeometry>
        </mxCell>
        <mxCell id="DUinE7ujqetBSsv4jxN9-68" value="User clicks &quot;SUBMIT&quot;" style="whiteSpace=wrap;html=1;rounded=1;" vertex="1" parent="1">
          <mxGeometry x="680" y="260" width="120" height="22.5" as="geometry" />
        </mxCell>
        <mxCell id="DUinE7ujqetBSsv4jxN9-75" style="edgeStyle=orthogonalEdgeStyle;rounded=0;orthogonalLoop=1;jettySize=auto;html=1;exitX=1;exitY=0.5;exitDx=0;exitDy=0;entryX=0;entryY=0.5;entryDx=0;entryDy=0;" edge="1" parent="1" source="DUinE7ujqetBSsv4jxN9-72" target="DUinE7ujqetBSsv4jxN9-73">
          <mxGeometry relative="1" as="geometry" />
        </mxCell>
        <mxCell id="DUinE7ujqetBSsv4jxN9-72" value="User informed to wait while deck is created" style="rounded=0;whiteSpace=wrap;html=1;" vertex="1" parent="1">
          <mxGeometry x="680" y="300" width="120" height="40" as="geometry" />
        </mxCell>
        <mxCell id="DUinE7ujqetBSsv4jxN9-77" style="edgeStyle=orthogonalEdgeStyle;rounded=0;orthogonalLoop=1;jettySize=auto;html=1;exitX=1;exitY=0.5;exitDx=0;exitDy=0;entryX=0.5;entryY=1;entryDx=0;entryDy=0;" edge="1" parent="1" source="DUinE7ujqetBSsv4jxN9-73" target="DUinE7ujqetBSsv4jxN9-76">
          <mxGeometry relative="1" as="geometry" />
        </mxCell>
        <mxCell id="DUinE7ujqetBSsv4jxN9-79" value="False" style="edgeLabel;html=1;align=center;verticalAlign=middle;resizable=0;points=[];" vertex="1" connectable="0" parent="DUinE7ujqetBSsv4jxN9-77">
          <mxGeometry x="-0.4053" y="-1" relative="1" as="geometry">
            <mxPoint as="offset" />
          </mxGeometry>
        </mxCell>
        <mxCell id="DUinE7ujqetBSsv4jxN9-81" style="edgeStyle=orthogonalEdgeStyle;rounded=0;orthogonalLoop=1;jettySize=auto;html=1;exitX=0.5;exitY=1;exitDx=0;exitDy=0;entryX=1;entryY=0.5;entryDx=0;entryDy=0;" edge="1" parent="1" source="DUinE7ujqetBSsv4jxN9-73" target="DUinE7ujqetBSsv4jxN9-80">
          <mxGeometry relative="1" as="geometry">
            <Array as="points">
              <mxPoint x="853" y="370" />
              <mxPoint x="660" y="370" />
              <mxPoint x="660" y="280" />
            </Array>
          </mxGeometry>
        </mxCell>
        <mxCell id="DUinE7ujqetBSsv4jxN9-84" value="True" style="edgeLabel;html=1;align=center;verticalAlign=middle;resizable=0;points=[];" vertex="1" connectable="0" parent="DUinE7ujqetBSsv4jxN9-81">
          <mxGeometry x="-0.8926" y="-1" relative="1" as="geometry">
            <mxPoint as="offset" />
          </mxGeometry>
        </mxCell>
        <mxCell id="DUinE7ujqetBSsv4jxN9-73" value="" style="rhombus;whiteSpace=wrap;html=1;" vertex="1" parent="1">
          <mxGeometry x="830" y="310" width="45" height="20" as="geometry" />
        </mxCell>
        <mxCell id="DUinE7ujqetBSsv4jxN9-74" value="Deck created&lt;div&gt;without error?&lt;/div&gt;" style="text;html=1;align=center;verticalAlign=middle;resizable=0;points=[];autosize=1;strokeColor=none;fillColor=none;" vertex="1" parent="1">
          <mxGeometry x="802.5" y="270" width="100" height="40" as="geometry" />
        </mxCell>
        <mxCell id="DUinE7ujqetBSsv4jxN9-78" style="edgeStyle=orthogonalEdgeStyle;rounded=0;orthogonalLoop=1;jettySize=auto;html=1;exitX=0.5;exitY=0;exitDx=0;exitDy=0;entryX=1;entryY=0.5;entryDx=0;entryDy=0;" edge="1" parent="1" source="DUinE7ujqetBSsv4jxN9-76" target="DUinE7ujqetBSsv4jxN9-52">
          <mxGeometry relative="1" as="geometry" />
        </mxCell>
        <mxCell id="DUinE7ujqetBSsv4jxN9-76" value="Inform user of error, prompt to try again or come back later" style="rounded=0;whiteSpace=wrap;html=1;" vertex="1" parent="1">
          <mxGeometry x="902.5" y="240" width="120" height="60" as="geometry" />
        </mxCell>
        <mxCell id="DUinE7ujqetBSsv4jxN9-83" style="edgeStyle=orthogonalEdgeStyle;rounded=0;orthogonalLoop=1;jettySize=auto;html=1;exitX=0.5;exitY=1;exitDx=0;exitDy=0;entryX=0.5;entryY=0;entryDx=0;entryDy=0;" edge="1" parent="1" source="DUinE7ujqetBSsv4jxN9-80" target="DUinE7ujqetBSsv4jxN9-82">
          <mxGeometry relative="1" as="geometry" />
        </mxCell>
        <mxCell id="DUinE7ujqetBSsv4jxN9-80" value="User navigated to deck profile" style="rounded=0;whiteSpace=wrap;html=1;" vertex="1" parent="1">
          <mxGeometry x="525" y="260" width="120" height="40" as="geometry" />
        </mxCell>
        <mxCell id="DUinE7ujqetBSsv4jxN9-82" value="" style="ellipse;html=1;shape=endState;fillColor=#000000;strokeColor=#ff0000;" vertex="1" parent="1">
          <mxGeometry x="570" y="350" width="30" height="30" as="geometry" />
        </mxCell>
        <mxCell id="DUinE7ujqetBSsv4jxN9-89" style="edgeStyle=orthogonalEdgeStyle;rounded=0;orthogonalLoop=1;jettySize=auto;html=1;exitX=0;exitY=0.5;exitDx=0;exitDy=0;entryX=1;entryY=0.5;entryDx=0;entryDy=0;" edge="1" parent="1" source="DUinE7ujqetBSsv4jxN9-85" target="DUinE7ujqetBSsv4jxN9-88">
          <mxGeometry relative="1" as="geometry" />
        </mxCell>
        <mxCell id="DUinE7ujqetBSsv4jxN9-85" value="User navigated to deck editor" style="rounded=0;whiteSpace=wrap;html=1;" vertex="1" parent="1">
          <mxGeometry x="360" y="70" width="120" height="40" as="geometry" />
        </mxCell>
        <mxCell id="DUinE7ujqetBSsv4jxN9-91" style="edgeStyle=orthogonalEdgeStyle;rounded=0;orthogonalLoop=1;jettySize=auto;html=1;exitX=0.5;exitY=1;exitDx=0;exitDy=0;entryX=0.5;entryY=0;entryDx=0;entryDy=0;" edge="1" parent="1" source="DUinE7ujqetBSsv4jxN9-88" target="DUinE7ujqetBSsv4jxN9-90">
          <mxGeometry relative="1" as="geometry" />
        </mxCell>
        <mxCell id="DUinE7ujqetBSsv4jxN9-88" value="User enters title, optional description and optional tags" style="rounded=1;whiteSpace=wrap;html=1;" vertex="1" parent="1">
          <mxGeometry x="190" y="60" width="120" height="60" as="geometry" />
        </mxCell>
        <mxCell id="DUinE7ujqetBSsv4jxN9-94" style="edgeStyle=orthogonalEdgeStyle;rounded=0;orthogonalLoop=1;jettySize=auto;html=1;exitX=1;exitY=0.5;exitDx=0;exitDy=0;entryX=0;entryY=0.5;entryDx=0;entryDy=0;" edge="1" parent="1" source="DUinE7ujqetBSsv4jxN9-90" target="DUinE7ujqetBSsv4jxN9-92">
          <mxGeometry relative="1" as="geometry" />
        </mxCell>
        <mxCell id="DUinE7ujqetBSsv4jxN9-90" value="User creates cards with questions" style="rounded=1;whiteSpace=wrap;html=1;" vertex="1" parent="1">
          <mxGeometry x="190" y="155" width="120" height="45" as="geometry" />
        </mxCell>
        <mxCell id="DUinE7ujqetBSsv4jxN9-96" style="edgeStyle=orthogonalEdgeStyle;rounded=0;orthogonalLoop=1;jettySize=auto;html=1;exitX=0.5;exitY=1;exitDx=0;exitDy=0;entryX=0.5;entryY=0;entryDx=0;entryDy=0;" edge="1" parent="1" source="DUinE7ujqetBSsv4jxN9-92" target="DUinE7ujqetBSsv4jxN9-95">
          <mxGeometry relative="1" as="geometry" />
        </mxCell>
        <mxCell id="DUinE7ujqetBSsv4jxN9-97" value="True" style="edgeLabel;html=1;align=center;verticalAlign=middle;resizable=0;points=[];" vertex="1" connectable="0" parent="DUinE7ujqetBSsv4jxN9-96">
          <mxGeometry x="-0.2418" y="-1" relative="1" as="geometry">
            <mxPoint as="offset" />
          </mxGeometry>
        </mxCell>
        <mxCell id="DUinE7ujqetBSsv4jxN9-99" style="edgeStyle=orthogonalEdgeStyle;rounded=0;orthogonalLoop=1;jettySize=auto;html=1;exitX=0;exitY=1;exitDx=0;exitDy=0;entryX=0.5;entryY=0;entryDx=0;entryDy=0;" edge="1" parent="1" source="DUinE7ujqetBSsv4jxN9-92" target="DUinE7ujqetBSsv4jxN9-98">
          <mxGeometry relative="1" as="geometry">
            <Array as="points">
              <mxPoint x="390" y="183" />
              <mxPoint x="390" y="210" />
              <mxPoint x="260" y="210" />
            </Array>
          </mxGeometry>
        </mxCell>
        <mxCell id="DUinE7ujqetBSsv4jxN9-92" value="" style="rhombus;whiteSpace=wrap;html=1;" vertex="1" parent="1">
          <mxGeometry x="387.5" y="167.5" width="45" height="20" as="geometry" />
        </mxCell>
        <mxCell id="DUinE7ujqetBSsv4jxN9-93" value="Deck has a title, atleast one card,&lt;br&gt;and every card has a question&lt;br&gt;and at least one answer?" style="text;html=1;align=center;verticalAlign=middle;resizable=0;points=[];autosize=1;strokeColor=none;fillColor=none;" vertex="1" parent="1">
          <mxGeometry x="310" y="110" width="200" height="60" as="geometry" />
        </mxCell>
        <mxCell id="DUinE7ujqetBSsv4jxN9-101" style="edgeStyle=orthogonalEdgeStyle;rounded=0;orthogonalLoop=1;jettySize=auto;html=1;exitX=0.5;exitY=1;exitDx=0;exitDy=0;entryX=0.5;entryY=0;entryDx=0;entryDy=0;" edge="1" parent="1" source="DUinE7ujqetBSsv4jxN9-95" target="DUinE7ujqetBSsv4jxN9-100">
          <mxGeometry relative="1" as="geometry" />
        </mxCell>
        <mxCell id="DUinE7ujqetBSsv4jxN9-95" value="Enable save button" style="rounded=0;whiteSpace=wrap;html=1;" vertex="1" parent="1">
          <mxGeometry x="350" y="230" width="120" height="20" as="geometry" />
        </mxCell>
        <mxCell id="DUinE7ujqetBSsv4jxN9-98" value="Disable save button" style="rounded=0;whiteSpace=wrap;html=1;" vertex="1" parent="1">
          <mxGeometry x="200" y="228.75" width="120" height="22.5" as="geometry" />
        </mxCell>
        <mxCell id="DUinE7ujqetBSsv4jxN9-102" style="edgeStyle=orthogonalEdgeStyle;rounded=0;orthogonalLoop=1;jettySize=auto;html=1;exitX=1;exitY=0.5;exitDx=0;exitDy=0;entryX=0;entryY=0.5;entryDx=0;entryDy=0;" edge="1" parent="1" source="DUinE7ujqetBSsv4jxN9-100" target="DUinE7ujqetBSsv4jxN9-80">
          <mxGeometry relative="1" as="geometry" />
        </mxCell>
        <mxCell id="DUinE7ujqetBSsv4jxN9-100" value="User clicks &quot;SAVE DECK&quot;" style="rounded=1;whiteSpace=wrap;html=1;" vertex="1" parent="1">
          <mxGeometry x="350" y="293" width="120" height="37" as="geometry" />
        </mxCell>
      </root>
    </mxGraphModel>
  </diagram>
</mxfile>
